<svg xmlns="http://www.w3.org/2000/svg" width="248" height="43" viewBox="0 0 248 43" fill="none">
  <path d="M76.6097 32.3965C74.9152 32.3965 73.2913 32.1746 71.738 31.7308C70.1846 31.2669 68.9339 30.6718 67.9858 29.9455L69.6501 26.2539C70.5578 26.8994 71.627 27.434 72.8576 27.8576C74.1083 28.2611 75.3691 28.4628 76.64 28.4628C77.6083 28.4628 78.385 28.372 78.97 28.1905C79.5752 27.9887 80.019 27.7164 80.3014 27.3735C80.5838 27.0305 80.725 26.6372 80.725 26.1933C80.725 25.6285 80.5032 25.1847 80.0593 24.8619C79.6155 24.519 79.0305 24.2467 78.3043 24.0449C77.5781 23.823 76.7711 23.6213 75.8835 23.4397C75.0161 23.238 74.1386 22.9959 73.2509 22.7135C72.3835 22.4311 71.5867 22.068 70.8605 21.6242C70.1342 21.1804 69.5391 20.5953 69.0751 19.8691C68.6313 19.1429 68.4094 18.2149 68.4094 17.0852C68.4094 15.8749 68.7322 14.7754 69.3777 13.7869C70.0434 12.7783 71.0319 11.9815 72.3432 11.3964C73.6746 10.7913 75.3389 10.4887 77.336 10.4887C78.6674 10.4887 79.9786 10.65 81.2697 10.9728C82.5608 11.2754 83.7006 11.7394 84.689 12.3647L83.1761 16.0867C82.1876 15.5218 81.1991 15.1083 80.2106 14.846C79.2222 14.5636 78.2539 14.4224 77.3057 14.4224C76.3576 14.4224 75.5809 14.5333 74.9757 14.7553C74.3705 14.9772 73.9368 15.2697 73.6746 15.6328C73.4123 15.9757 73.2812 16.3792 73.2812 16.8432C73.2812 17.3878 73.5031 17.8316 73.9469 18.1746C74.3907 18.4973 74.9757 18.7596 75.702 18.9613C76.4282 19.1631 77.225 19.3648 78.0925 19.5665C78.9801 19.7682 79.8576 20.0002 80.725 20.2625C81.6127 20.5247 82.4196 20.8778 83.1458 21.3216C83.872 21.7654 84.457 22.3504 84.9009 23.0766C85.3648 23.8028 85.5968 24.7207 85.5968 25.8302C85.5968 27.0204 85.264 28.1098 84.5983 29.0983C83.9326 30.0867 82.934 30.8836 81.6026 31.4888C80.2913 32.094 78.6271 32.3965 76.6097 32.3965Z" fill="#0068FF"/>
  <path d="M0 10.8518V14.846H8.8963C10.4093 14.846 11.539 15.1688 12.2854 15.8143C13.0318 16.4599 13.405 17.3677 13.405 18.5377C13.405 19.6876 13.0318 20.5852 12.2854 21.2308C11.539 21.8763 10.4093 22.1991 8.8963 22.1991H0V32.0334H4.90204V26.1933H9.16863C11.0649 26.1933 12.6989 25.8907 14.0707 25.2856C15.4424 24.6602 16.5015 23.7726 17.2479 22.6227C17.9943 21.4729 18.3675 20.1112 18.3675 18.5377C18.3675 16.944 17.9943 15.5723 17.2479 14.4224C16.5015 13.2725 15.4424 12.395 14.0707 11.7898C12.6989 11.1645 11.0649 10.8518 9.16863 10.8518H0Z" fill="#0068FF"/>
  <path d="M21.8672 22.2294V32.0334H26.7693V26.1328H31.0359C31.1131 26.1328 31.1899 26.1323 31.2663 26.1313L35.3327 32.0334H40.6281L35.8964 25.2432L35.9379 25.225C37.3097 24.6198 38.3687 23.7524 39.1151 22.6227C39.8615 21.4729 40.2347 20.1112 40.2347 18.5377C40.2347 16.944 39.8615 15.5723 39.1151 14.4224C38.3687 13.2725 37.3097 12.395 35.9379 11.7898C34.5661 11.1645 32.9321 10.8518 31.0359 10.8518H21.8672V14.846H30.7635C32.2765 14.846 33.4062 15.1688 34.1526 15.8143C34.899 16.4599 35.2722 17.3677 35.2722 18.5377C35.2722 19.6876 34.899 20.5953 34.1526 21.261C33.4062 21.9066 32.2765 22.2294 30.7635 22.2294H21.8672Z" fill="#0068FF"/>
  <path d="M95.9061 32.3965C94.2116 32.3965 92.5876 32.1746 91.0343 31.7308C89.481 31.2669 88.2303 30.6718 87.2821 29.9455L88.9464 26.2539C89.8542 26.8994 90.9234 27.434 92.1539 27.8576C93.4046 28.2611 94.6655 28.4628 95.9364 28.4628C96.9047 28.4628 97.6813 28.372 98.2663 28.1905C98.8715 27.9887 99.3153 27.7164 99.5978 27.3735C99.8802 27.0305 100.021 26.6372 100.021 26.1933C100.021 25.6285 99.7995 25.1847 99.3557 24.8619C98.9119 24.519 98.3269 24.2467 97.6006 24.0449C96.8744 23.823 96.0675 23.6213 95.1799 23.4397C94.3124 23.238 93.4349 22.9959 92.5473 22.7135C91.6799 22.4311 90.883 22.068 90.1568 21.6242C89.4306 21.1804 88.8355 20.5953 88.3715 19.8691C87.9277 19.1429 87.7058 18.2149 87.7058 17.0852C87.7058 15.8749 88.0285 14.7754 88.6741 13.7869C89.3398 12.7783 90.3283 11.9815 91.6395 11.3964C92.9709 10.7913 94.6352 10.4887 96.6323 10.4887C97.9637 10.4887 99.275 10.65 100.566 10.9728C101.857 11.2754 102.997 11.7394 103.985 12.3647L102.472 16.0867C101.484 15.5218 100.495 15.1083 99.507 14.846C98.5185 14.5636 97.5502 14.4224 96.6021 14.4224C95.6539 14.4224 94.8773 14.5333 94.2721 14.7553C93.6669 14.9772 93.2332 15.2697 92.9709 15.6328C92.7087 15.9757 92.5776 16.3792 92.5776 16.8432C92.5776 17.3878 92.7995 17.8316 93.2433 18.1746C93.6871 18.4973 94.2721 18.7596 94.9983 18.9613C95.7245 19.1631 96.5214 19.3648 97.3888 19.5665C98.2764 19.7682 99.154 20.0002 100.021 20.2625C100.909 20.5247 101.716 20.8778 102.442 21.3216C103.168 21.7654 103.753 22.3504 104.197 23.0766C104.661 23.8028 104.893 24.7207 104.893 25.8302C104.893 27.0204 104.56 28.1098 103.895 29.0983C103.229 30.0867 102.23 30.8836 100.899 31.4888C99.5877 32.094 97.9234 32.3965 95.9061 32.3965Z" fill="#0068FF"/>
  <path d="M108.243 10.8518H113.145V32.0334H108.243V10.8518Z" fill="#0068FF"/>
  <path d="M118.172 10.8518H122.226L130.16 24.0042L137.961 10.8518H141.986L142.046 32.0334H137.447L137.42 19.3201L131.183 29.7942H128.974L122.771 19.594V32.0334H118.172V10.8518Z" fill="#0068FF"/>
  <path d="M153.729 10.8518H158.57L168.042 32.0334H162.898L156.118 15.666L149.311 32.0334H144.288L153.729 10.8518Z" fill="#0068FF"/>
  <path d="M54.2489 17.0389C53.9207 16.7107 53.3885 16.7107 53.0602 17.0389C52.732 17.3672 52.732 17.8994 53.0602 18.2276L55.6879 20.8553L49.592 20.8553C49.1278 20.8553 48.7515 21.2317 48.7515 21.6959C48.7515 22.1601 49.1278 22.5364 49.592 22.5364L55.6879 22.5364L53.0602 25.1642C52.732 25.4924 52.732 26.0246 53.0602 26.3529C53.3885 26.6811 53.9207 26.6811 54.2489 26.3529L58.3115 22.2902C58.6398 21.962 58.6398 21.4298 58.3115 21.1015L54.2489 17.0389Z" fill="#0068FF"/>
  <path fill-rule="evenodd" clip-rule="evenodd" d="M53.829 11.3292C48.0073 11.3292 43.2879 16.0486 43.2879 21.8703C43.2879 27.692 48.0073 32.4114 53.829 32.4114C59.6507 32.4114 64.3701 27.692 64.3701 21.8703C64.3701 16.0486 59.6507 11.3292 53.829 11.3292ZM44.969 21.8703C44.969 16.977 48.9358 13.0103 53.829 13.0103C58.7222 13.0103 62.689 16.977 62.689 21.8703C62.689 26.7635 58.7222 30.7303 53.829 30.7303C48.9358 30.7303 44.969 26.7635 44.969 21.8703Z" fill="#0068FF"/>
  <path d="M225.483 10.8593H230.324L239.795 32.041H234.651L227.871 15.6736L221.065 32.041H216.042L225.483 10.8593Z" fill="#0068FF"/>
  <path d="M242.337 10.8591L247.239 10.8594V32.041H242.337V10.8591Z" fill="#0068FF"/>
</svg>